<svg xmlns="http://www.w3.org/2000/svg" xmlns:xsi="http://www.w3.org/2001/XMLSchema-instance" width="1190.551pt" height="841.8898pt" viewBox="0 0 1190.551 841.8898" id="elan_s4">
    <g>
        <path transform="matrix(2.834646,0,0,2.834646,0,0)" stroke-width=".1799143" stroke-linecap="round" stroke-linejoin="round" fill="none" stroke="#ff003f" d="M220.1955 170.0772V158.7705"/>
        <path transform="matrix(2.834646,0,0,2.834646,0,0)" stroke-width=".1799143" stroke-linecap="round" stroke-linejoin="round" fill="none" stroke="#ff003f" d="M112.1334 158.7705V38.2008"/>
        <path transform="matrix(2.834646,0,0,2.834646,0,0)" stroke-width=".1799143" stroke-linecap="round" stroke-linejoin="round" fill="none" stroke="#7c00a5" d="M196.4716 131.5119H120.4203"/>
        <path transform="matrix(2.834646,0,0,2.834646,0,0)" stroke-width=".1799143" stroke-linecap="round" stroke-linejoin="round" fill="none" stroke="#007fff" d="M190.8406 127.0754H113.6695"/>
        <path transform="matrix(2.834646,0,0,2.834646,0,0)" stroke-width=".1799143" stroke-linecap="round" stroke-linejoin="round" fill="none" stroke="#007fff" d="M193.1448 126.3441H197.2397"/>
        <path transform="matrix(2.834646,0,0,2.834646,0,0)" stroke-width=".1799143" stroke-linecap="round" stroke-linejoin="round" fill="none" stroke="#000000" d="M179.3931 189.3025H175.1993"/>
        <path transform="matrix(2.834646,0,0,2.834646,0,0)" stroke-width=".1799143" stroke-linecap="round" stroke-linejoin="round" fill="none" stroke="#000000" d="M157.0237 189.881V58.17014"/>
        <path transform="matrix(2.834646,0,0,2.834646,0,0)" stroke-width=".1799143" stroke-linecap="round" stroke-linejoin="round" fill="none" stroke="#000000" d="M227.1615 86.14168V81.02234"/>
        <path transform="matrix(2.834646,0,0,2.834646,0,0)" stroke-width=".1799143" stroke-linecap="round" stroke-linejoin="round" fill="none" stroke="#000000" d="M158.5598 81.02234H227.1615"/>
        <path transform="matrix(2.834646,0,0,2.834646,0,0)" stroke-width=".1799143" stroke-linecap="round" stroke-linejoin="round" fill="none" stroke="#000000" d="M172.8951 189.3025H158.5598"/>
        <path transform="matrix(2.834646,0,0,2.834646,0,0)" stroke-width=".1799143" stroke-linecap="round" stroke-linejoin="round" fill="none" stroke="#000000" d="M172.8951 189.881H157.0237"/>
        <path transform="matrix(2.834646,0,0,2.834646,0,0)" stroke-width=".1799143" stroke-linecap="round" stroke-linejoin="round" fill="none" stroke="#000000" d="M158.5598 189.3025V81.02234"/>
        <path transform="matrix(2.834646,0,0,2.834646,0,0)" stroke-width=".1799143" stroke-linecap="round" stroke-linejoin="round" fill="none" stroke="#b6b6b6" d="M172.8951 196.5141H149.673"/>
        <path transform="matrix(2.834646,0,0,2.834646,0,0)" stroke-width=".1799143" stroke-linecap="round" stroke-linejoin="round" fill="none" stroke="#b6b6b6" d="M149.673 196.5141V56.63403"/>
        <path transform="matrix(2.834646,0,0,2.834646,0,0)" stroke-width=".1799143" stroke-linecap="round" stroke-linejoin="round" fill="none" stroke="#7c00a5" d="M176.843 36.6647V176.9897"/>
        <path transform="matrix(2.834646,0,0,2.834646,0,0)" stroke-width=".1799143" stroke-linecap="round" stroke-linejoin="round" fill="none" stroke="#b6b6b6" d="M214.457 89.26905H233.4541"/>
        <path transform="matrix(2.834646,0,0,2.834646,0,0)" stroke-width=".1799143" stroke-linecap="round" stroke-linejoin="round" fill="none" stroke="#bfff7f" d="M229.0368 74.14613 232.1091 72.61002"/>
        <path transform="matrix(2.834646,0,0,2.834646,0,0)" stroke-width=".1799143" stroke-linecap="round" stroke-linejoin="round" fill="none" stroke="#bfff7f" d="M226.7327 74.14613 223.6605 72.61002"/>
        <path transform="matrix(2.834646,0,0,2.834646,0,0)" stroke-width=".1799143" stroke-linecap="round" stroke-linejoin="round" fill="none" stroke="#ff003f" d="M220.1955 158.7705H112.1334"/>
        <path transform="matrix(2.834646,0,0,2.834646,0,0)" stroke-width=".1799143" stroke-linecap="round" stroke-linejoin="round" fill="none" stroke="#007fff" d="M205.9669 163.3788H113.6695"/>
        <path transform="matrix(2.834646,0,0,2.834646,0,0)" stroke-width=".1799143" stroke-linecap="round" stroke-linejoin="round" fill="none" stroke="#007fff" d="M205.9669 164.7009V163.3788"/>
        <path transform="matrix(2.834646,0,0,2.834646,0,0)" stroke-width=".1799143" stroke-linecap="round" stroke-linejoin="round" fill="none" stroke="#007fff" d="M205.9669 164.7009 211.3433 170.0772"/>
        <path transform="matrix(2.834646,0,0,2.834646,0,0)" stroke-width=".1799143" stroke-linecap="round" stroke-linejoin="round" fill="none" stroke="#00a500" d="M224.9653 178.5258H178.0662"/>
        <path transform="matrix(2.834646,0,0,2.834646,0,0)" stroke-width=".1799143" stroke-linecap="round" stroke-linejoin="round" fill="none" stroke="#ffff00" d="M220.2285 182.5844H126.5648"/>
        <path transform="matrix(2.834646,0,0,2.834646,0,0)" stroke-width=".1799143" stroke-linecap="round" stroke-linejoin="round" fill="none" stroke="#ffff00" d="M220.2285 183.9362V182.5844"/>
        <path transform="matrix(2.834646,0,0,2.834646,0,0)" stroke-width=".1799143" stroke-linecap="round" stroke-linejoin="round" fill="none" stroke="#555555" d="M327.1554 154.8119C327.1554 155.2361 326.8115 155.58 326.3873 155.58 325.9631 155.58 325.6193 155.2361 325.6193 154.8119 325.6193 154.3877 325.9631 154.0439 326.3873 154.0439 326.8115 154.0439 327.1554 154.3877 327.1554 154.8119"/>
        <path transform="matrix(2.834646,0,0,2.834646,0,0)" stroke-width=".1799143" stroke-linecap="round" stroke-linejoin="round" fill="none" stroke="#555555" d="M327.1554 157.5001C327.1554 157.9243 326.8115 158.2681 326.3873 158.2681 325.9631 158.2681 325.6193 157.9243 325.6193 157.5001 325.6193 157.0759 325.9631 156.732 326.3873 156.732 326.8115 156.732 327.1554 157.0759 327.1554 157.5001"/>
        <path transform="matrix(2.834646,0,0,2.834646,0,0)" stroke-width=".1799143" stroke-linecap="round" stroke-linejoin="round" fill="none" stroke="#555555" d="M331.0421 175.9333C331.0421 176.4635 330.6122 176.8934 330.082 176.8934 329.5518 176.8934 329.1219 176.4635 329.1219 175.9333 329.1219 175.4031 329.5518 174.9733 330.082 174.9733 330.6122 174.9733 331.0421 175.4031 331.0421 175.9333"/>
        <path transform="matrix(2.834646,0,0,2.834646,0,0)" stroke-width=".1799143" stroke-linecap="round" stroke-linejoin="round" fill="none" stroke="#555555" d="M331.0421 168.2528C331.0421 168.783 330.6122 169.2129 330.082 169.2129 329.5518 169.2129 329.1219 168.783 329.1219 168.2528 329.1219 167.7226 329.5518 167.2927 330.082 167.2927 330.6122 167.2927 331.0421 167.7226 331.0421 168.2528"/>
        <path transform="matrix(2.834646,0,0,2.834646,0,0)" stroke-width=".1799143" stroke-linecap="round" stroke-linejoin="round" fill="none" stroke="#555555" d="M331.0421 60.72559C331.0421 61.25583 330.6122 61.68566 330.082 61.68566 329.5518 61.68566 329.1219 61.25583 329.1219 60.72559 329.1219 60.19537 329.5518 59.76553 330.082 59.76553 330.6122 59.76553 331.0421 60.19537 331.0421 60.72559"/>
        <path transform="matrix(2.834646,0,0,2.834646,0,0)" stroke-width=".1799143" stroke-linecap="round" stroke-linejoin="round" fill="none" stroke="#555555" d="M331.0421 68.40611C331.0421 68.93634 330.6122 69.36617 330.082 69.36617 329.5518 69.36617 329.1219 68.93634 329.1219 68.40611 329.1219 67.87589 329.5518 67.44604 330.082 67.44604 330.6122 67.44604 331.0421 67.87589 331.0421 68.40611"/>
        <path transform="matrix(2.834646,0,0,2.834646,0,0)" stroke-width=".1799143" stroke-linecap="round" stroke-linejoin="round" fill="none" stroke="#555555" d="M327.1554 84.91922C327.1554 85.3434 326.8115 85.68727 326.3873 85.68727 325.9631 85.68727 325.6193 85.3434 325.6193 84.91922 325.6193 84.49503 325.9631 84.15117 326.3873 84.15117 326.8115 84.15117 327.1554 84.49503 327.1554 84.91922"/>
        <path transform="matrix(2.834646,0,0,2.834646,0,0)" stroke-width=".1799143" stroke-linecap="round" stroke-linejoin="round" fill="none" stroke="#555555" d="M327.1554 87.6074C327.1554 88.03158 326.8115 88.37545 326.3873 88.37545 325.9631 88.37545 325.6193 88.03158 325.6193 87.6074 325.6193 87.18321 325.9631 86.83935 326.3873 86.83935 326.8115 86.83935 327.1554 87.18321 327.1554 87.6074"/>
        <path transform="matrix(2.834646,0,0,2.834646,0,0)" stroke-width=".1799143" stroke-linecap="round" stroke-linejoin="round" fill="none" stroke="#555555" d="M328.3074 27.44808C328.3074 28.50853 327.4478 29.3682 326.3873 29.3682 325.3268 29.3682 324.4672 28.50853 324.4672 27.44808 324.4672 26.38762 325.3268 25.52795 326.3873 25.52795 327.4478 25.52795 328.3074 26.38762 328.3074 27.44808"/>
        <path transform="matrix(2.834646,0,0,2.834646,0,0)" stroke-width=".1799143" stroke-linecap="round" stroke-linejoin="round" fill="none" stroke="#555555" d="M342.3381 80.99288C342.3381 82.26543 341.3065 83.29704 340.034 83.29704 338.7614 83.29704 337.7298 82.26543 337.7298 80.99288 337.7298 79.72034 338.7614 78.68873 340.034 78.68873 341.3065 78.68873 342.3381 79.72034 342.3381 80.99288"/>
        <path transform="matrix(2.834646,0,0,2.834646,0,0)" stroke-width=".1799143" stroke-linecap="round" stroke-linejoin="round" fill="none" stroke="#555555" d="M341.3781 80.99288C341.3781 81.73521 340.7763 82.33698 340.034 82.33698 339.2917 82.33698 338.6899 81.73521 338.6899 80.99288 338.6899 80.25056 339.2917 79.6488 340.034 79.6488 340.7763 79.6488 341.3781 80.25056 341.3781 80.99288"/>
        <path transform="matrix(2.834646,0,0,2.834646,0,0)" stroke-width=".1799143" stroke-linecap="round" stroke-linejoin="round" fill="none" stroke="#000000" d="M289.3753 87.6074C289.3753 88.03158 289.0314 88.37545 288.6072 88.37545 288.183 88.37545 287.8392 88.03158 287.8392 87.6074 287.8392 87.18321 288.183 86.83935 288.6072 86.83935 289.0314 86.83935 289.3753 87.18321 289.3753 87.6074"/>
        <path transform="matrix(2.834646,0,0,2.834646,0,0)" stroke-width=".1799143" stroke-linecap="round" stroke-linejoin="round" fill="none" stroke="#555555" d="M342.3381 129.7642C342.3381 131.0367 341.3065 132.0683 340.034 132.0683 338.7614 132.0683 337.7298 131.0367 337.7298 129.7642 337.7298 128.4916 338.7614 127.46 340.034 127.46 341.3065 127.46 342.3381 128.4916 342.3381 129.7642"/>
        <path transform="matrix(2.834646,0,0,2.834646,0,0)" stroke-width=".1799143" stroke-linecap="round" stroke-linejoin="round" fill="none" stroke="#555555" d="M341.3781 129.7642C341.3781 130.5065 340.7763 131.1082 340.034 131.1082 339.2917 131.1082 338.6899 130.5065 338.6899 129.7642 338.6899 129.0218 339.2917 128.4201 340.034 128.4201 340.7763 128.4201 341.3781 129.0218 341.3781 129.7642"/>
        <path transform="matrix(2.834646,0,0,2.834646,0,0)" stroke-width=".1799143" stroke-linecap="round" stroke-linejoin="round" fill="none" stroke="#555555" d="M329.8076 123.6943C329.8076 124.5426 329.1199 125.2304 328.2715 125.2304 327.4232 125.2304 326.7354 124.5426 326.7354 123.6943 326.7354 122.8459 327.4232 122.1582 328.2715 122.1582 329.1199 122.1582 329.8076 122.8459 329.8076 123.6943"/>
        <path transform="matrix(2.834646,0,0,2.834646,0,0)" stroke-width=".1799143" stroke-linecap="round" stroke-linejoin="round" fill="none" stroke="#555555" d="M329.8076 127.9858C329.8076 128.8342 329.1199 129.5219 328.2715 129.5219 327.4232 129.5219 326.7354 128.8342 326.7354 127.9858 326.7354 127.1375 327.4232 126.4497 328.2715 126.4497 329.1199 126.4497 329.8076 127.1375 329.8076 127.9858"/>
        <path transform="matrix(2.834646,0,0,2.834646,0,0)" stroke-width=".1799143" stroke-linecap="round" stroke-linejoin="round" fill="none" stroke="#555555" d="M278.2769 47.68623C278.2769 48.00437 278.019 48.26227 277.7009 48.26227 277.3828 48.26227 277.1249 48.00437 277.1249 47.68623 277.1249 47.3681 277.3828 47.1102 277.7009 47.1102 278.019 47.1102 278.2769 47.3681 278.2769 47.68623"/>
        <path transform="matrix(2.834646,0,0,2.834646,0,0)" stroke-width=".1799143" stroke-linecap="round" stroke-linejoin="round" fill="none" stroke="#555555" d="M281.7332 47.68623C281.7332 48.00437 281.4753 48.26227 281.1571 48.26227 280.839 48.26227 280.5811 48.00437 280.5811 47.68623 280.5811 47.3681 280.839 47.1102 281.1571 47.1102 281.4753 47.1102 281.7332 47.3681 281.7332 47.68623"/>
        <path transform="matrix(2.834646,0,0,2.834646,0,0)" stroke-width=".1799143" stroke-linecap="round" stroke-linejoin="round" fill="none" stroke="#555555" d="M278.2769 49.45275C278.2769 49.77089 278.019 50.02879 277.7009 50.02879 277.3828 50.02879 277.1249 49.77089 277.1249 49.45275 277.1249 49.13461 277.3828 48.87671 277.7009 48.87671 278.019 48.87671 278.2769 49.13461 278.2769 49.45275"/>
        <path transform="matrix(2.834646,0,0,2.834646,0,0)" stroke-width=".1799143" stroke-linecap="round" stroke-linejoin="round" fill="none" stroke="#555555" d="M281.7332 49.45275C281.7332 49.77089 281.4753 50.02879 281.1571 50.02879 280.839 50.02879 280.5811 49.77089 280.5811 49.45275 280.5811 49.13461 280.839 48.87671 281.1571 48.87671 281.4753 48.87671 281.7332 49.13461 281.7332 49.45275"/>
        <path transform="matrix(2.834646,0,0,2.834646,0,0)" stroke-width=".1799143" stroke-linecap="round" stroke-linejoin="round" fill="none" stroke="#555555" d="M269.3778 115.6936C269.3778 116.1178 269.034 116.4617 268.6098 116.4617 268.1856 116.4617 267.8417 116.1178 267.8417 115.6936 267.8417 115.2694 268.1856 114.9256 268.6098 114.9256 269.034 114.9256 269.3778 115.2694 269.3778 115.6936"/>
        <path transform="matrix(2.834646,0,0,2.834646,0,0)" stroke-width=".1799143" stroke-linecap="round" stroke-linejoin="round" fill="none" stroke="#555555" d="M269.3778 113.0054C269.3778 113.4296 269.034 113.7735 268.6098 113.7735 268.1856 113.7735 267.8417 113.4296 267.8417 113.0054 267.8417 112.5813 268.1856 112.2374 268.6098 112.2374 269.034 112.2374 269.3778 112.5813 269.3778 113.0054"/>
        <path transform="matrix(2.834646,0,0,2.834646,0,0)" stroke-width=".1799143" stroke-linecap="round" stroke-linejoin="round" fill="none" stroke="#555555" d="M285.8936 116.1508C285.8936 116.575 285.5497 116.9189 285.1255 116.9189 284.7014 116.9189 284.3575 116.575 284.3575 116.1508 284.3575 115.7267 284.7014 115.3828 285.1255 115.3828 285.5497 115.3828 285.8936 115.7267 285.8936 116.1508"/>
        <path transform="matrix(2.834646,0,0,2.834646,0,0)" stroke-width=".1799143" stroke-linecap="round" stroke-linejoin="round" fill="none" stroke="#555555" d="M291.5435 116.1508C291.5435 116.575 291.1997 116.9189 290.7755 116.9189 290.3513 116.9189 290.0074 116.575 290.0074 116.1508 290.0074 115.7267 290.3513 115.3828 290.7755 115.3828 291.1997 115.3828 291.5435 115.7267 291.5435 116.1508"/>
        <path transform="matrix(2.834646,0,0,2.834646,0,0)" stroke-width=".1799143" stroke-linecap="round" stroke-linejoin="round" fill="none" stroke="#555555" d="M297.1935 116.1508C297.1935 116.575 296.8496 116.9189 296.4254 116.9189 296.0013 116.9189 295.6574 116.575 295.6574 116.1508 295.6574 115.7267 296.0013 115.3828 296.4254 115.3828 296.8496 115.3828 297.1935 115.7267 297.1935 116.1508"/>
</g>
</svg>